<?xml version="1.0" standalone="no"?>
<!DOCTYPE svg PUBLIC "-//W3C//DTD SVG 20010904//EN"
 "http://www.w3.org/TR/2001/REC-SVG-20010904/DTD/svg10.dtd">
<svg version="1.0" xmlns="http://www.w3.org/2000/svg"
 width="16.000000pt" height="16.000000pt" viewBox="0 0 16.000000 16.000000"
 preserveAspectRatio="xMidYMid meet">
<metadata>
Created by potrace 1.11, written by Peter Selinger 2001-2013
</metadata>
<g transform="translate(0.000000,16.000000) scale(0.001887,-0.001887)"
fill="#000000" stroke="none">
<path d="M4179 8267 c-186 -94 -355 -228 -486 -384 -18 -21 -44 -51 -58 -68
-14 -16 -33 -42 -43 -57 -9 -16 -20 -28 -24 -28 -4 0 -8 -5 -8 -11 0 -6 -12
-29 -27 -52 -45 -68 -51 -78 -91 -162 -59 -121 -94 -204 -107 -255 -2 -8 -10
-35 -18 -60 -11 -35 -45 -163 -52 -200 -1 -3 -4 -23 -8 -45 -7 -39 -10 -55
-22 -145 -3 -25 -8 -58 -11 -75 -10 -60 -12 -421 -3 -480 19 -115 48 -227 92
-345 40 -109 52 -137 118 -278 27 -56 48 -105 46 -109 -1 -4 -11 -8 -22 -9
-152 -12 -216 -19 -260 -28 -5 -2 -32 -7 -60 -11 -57 -10 -63 -12 -70 -15 -3
-1 -8 -3 -12 -4 -72 -16 -120 -31 -130 -39 -7 -5 -13 -7 -13 -4 0 3 -46 -12
-102 -34 -107 -42 -262 -120 -336 -170 -24 -16 -45 -29 -48 -29 -5 0 -39 -24
-94 -67 -128 -98 -268 -236 -365 -358 -44 -56 -145 -205 -161 -240 -8 -16 -27
-54 -43 -82 -16 -29 -26 -53 -22 -53 3 0 1 -4 -5 -8 -9 -6 -81 -173 -89 -207
-1 -5 -5 -17 -8 -25 -5 -13 -16 -51 -34 -117 -2 -7 -5 -19 -6 -25 -2 -7 -8
-35 -12 -63 -10 -57 -12 -64 -15 -67 -10 -13 -24 -204 -24 -338 0 -117 3 -167
16 -289 3 -20 -4 -27 -42 -40 -25 -9 -46 -19 -48 -23 -2 -5 -8 -8 -13 -8 -14
0 -124 -52 -130 -62 -3 -5 -9 -9 -13 -9 -17 3 -26 0 -38 -12 -7 -7 -24 -18
-38 -25 -52 -27 -126 -74 -185 -119 -16 -13 -34 -27 -40 -31 -76 -55 -115 -88
-115 -94 0 -4 -4 -8 -10 -8 -22 0 -281 -256 -390 -385 -36 -43 -77 -92 -92
-109 -15 -17 -28 -34 -28 -38 0 -4 -6 -13 -13 -20 -24 -25 -100 -131 -177
-248 -27 -41 -53 -79 -57 -85 -5 -5 -14 -21 -21 -35 -7 -14 -26 -47 -42 -75
-17 -27 -36 -61 -43 -75 -6 -14 -16 -28 -21 -31 -10 -8 43 -109 57 -109 6 0 8
-3 4 -6 -3 -3 2 -13 11 -23 10 -9 27 -30 39 -47 12 -16 33 -42 45 -58 32 -40
165 -172 212 -209 21 -18 48 -41 60 -52 11 -11 44 -36 71 -56 113 -80 155
-109 160 -109 2 0 33 -17 67 -38 68 -41 158 -85 253 -125 67 -27 140 -52 140
-47 0 2 11 -3 25 -10 23 -13 72 -27 115 -35 11 -2 32 -8 48 -14 15 -6 27 -9
27 -6 0 2 15 -1 32 -6 18 -5 49 -11 68 -14 19 -3 46 -7 60 -10 25 -6 49 -9
190 -24 76 -8 404 -7 450 2 14 3 41 8 60 11 102 20 426 151 438 178 2 5 12 8
23 8 10 0 19 3 19 8 0 4 17 16 38 27 56 30 177 108 180 117 2 4 10 8 17 8 7 0
15 4 17 9 2 4 12 11 23 15 16 5 28 -7 64 -60 25 -37 50 -72 55 -78 6 -6 29
-34 51 -61 99 -125 282 -287 441 -392 153 -100 402 -214 544 -249 8 -2 35 -8
60 -15 53 -13 89 -21 110 -24 8 -1 31 -5 50 -9 19 -4 53 -9 75 -12 64 -9 425
-9 475 -1 25 4 63 9 85 12 22 2 101 20 175 39 145 38 140 37 185 55 17 6 50
19 75 28 25 9 68 29 95 43 28 15 52 27 55 26 3 0 42 22 88 49 46 28 91 55 100
60 30 18 174 127 211 159 84 75 233 232 273 289 26 38 30 42 63 83 13 17 22
34 18 38 -3 3 -1 6 5 6 7 0 12 7 12 15 0 8 3 15 8 15 4 0 18 21 32 48 13 26
27 49 30 52 9 8 34 64 32 73 -1 4 1 7 6 7 4 0 13 15 21 33 7 17 22 52 33 77
11 25 21 50 23 55 1 6 7 23 13 38 7 15 15 40 18 55 14 59 32 80 66 80 38 0
151 11 188 18 14 2 41 7 60 10 19 3 43 7 52 10 10 3 30 8 45 10 16 3 53 12 83
22 30 9 57 16 60 17 13 2 57 17 75 25 11 4 45 18 75 30 82 33 223 102 238 117
7 7 20 13 28 13 8 0 14 5 14 10 0 6 6 10 13 10 13 0 162 105 236 168 92 76
247 239 303 317 4 5 19 24 33 41 14 18 25 36 25 42 0 6 4 12 8 14 15 6 104
160 149 258 24 52 48 103 53 112 6 10 10 23 10 30 0 7 6 25 14 40 11 21 27 71
31 98 0 3 3 10 7 16 4 6 10 26 13 45 3 19 14 75 25 124 11 50 23 119 27 155
15 129 7 469 -12 540 -2 8 -6 31 -9 50 -3 19 -8 46 -12 60 -3 14 -7 35 -9 47
-6 39 -79 258 -88 264 -5 3 -8 9 -7 13 3 14 -25 76 -34 76 -5 0 -6 3 -3 6 8 9
-71 157 -134 252 -27 41 -49 77 -49 82 0 5 -3 10 -7 12 -8 3 -30 29 -87 102
-52 67 -221 230 -295 286 -19 14 -45 35 -60 47 -14 13 -31 23 -38 23 -6 0 -13
3 -15 8 -5 11 -89 66 -126 83 -17 7 -32 17 -32 21 0 5 -3 7 -7 6 -5 0 -51 20
-103 45 -116 56 -312 125 -405 143 -11 2 -31 6 -45 9 -14 2 -41 7 -60 10 -19
3 -42 8 -50 10 -81 22 -480 22 -560 0 -19 -5 -89 -16 -115 -19 -11 -1 -26 -5
-32 -9 -7 -5 -13 -6 -13 -3 0 10 -239 -62 -283 -85 -11 -6 -21 -8 -24 -5 -5 5
34 111 49 131 7 11 17 47 49 180 24 102 26 265 5 333 -4 11 -8 29 -10 39 -11
53 -40 160 -48 176 -5 10 -12 30 -14 45 -17 92 -208 497 -295 624 -21 32 -39
62 -39 68 0 5 -4 10 -10 10 -5 0 -10 5 -10 11 0 13 -139 212 -152 217 -4 2 -8
8 -8 14 0 5 -21 36 -47 68 -27 32 -59 72 -73 90 -30 38 -46 57 -113 135 -194
222 -466 485 -690 665 -10 8 -31 25 -45 37 -15 13 -30 23 -33 23 -4 0 -44 -19
-90 -43z"/>
</g>
</svg>
