<?xml version="1.0" encoding="utf-8"?>
<!-- Generator: Adobe Illustrator 16.0.0, SVG Export Plug-In . SVG Version: 6.00 Build 0)  -->
<!DOCTYPE svg PUBLIC "-//W3C//DTD SVG 1.1//EN" "http://www.w3.org/Graphics/SVG/1.1/DTD/svg11.dtd">
<svg version="1.1" id="Layer_1" xmlns="http://www.w3.org/2000/svg" xmlns:xlink="http://www.w3.org/1999/xlink" x="0px" y="0px"
	 width="283.452px" height="65.313px" viewBox="0 0 283.452 65.313" enable-background="new 0 0 283.452 65.313"
	 xml:space="preserve">
<path fill="#7A936C" d="M30.665,27.201c0,0-5.053-7.125-5.12-11.761C25.361,2.9,33.992,0,33.992,0s10.834,8.037,12.67,18.041
	c0.798,4.35-5.006,11.012-5.006,11.012"/>
<circle fill="#4A5399" stroke="#FFFFFF" stroke-width="3" stroke-miterlimit="10" cx="28.063" cy="38.123" r="14.84"/>
<path fill="#7A936C" d="M26.192,55.394c0,0-5.61,5.054-9.941,5.219C4.54,61.064,0,52.76,0,52.76s5.243-10.679,14.231-12.677
	c3.908-0.868,11.376,4.615,11.376,4.615"/>
<circle fill="#4A5399" stroke="#FFFFFF" stroke-width="3" stroke-miterlimit="10" cx="51.68" cy="37.485" r="14.84"/>
<circle fill="#4A5399" stroke="#FFFFFF" stroke-width="3" stroke-miterlimit="10" cx="36.999" cy="48.973" r="14.84"/>
<g>
	<path fill="#3C405B" d="M78.55,32.263c0-3.941,0.835-14.512,14.99-14.512c12.541,0,14.631,8.241,14.93,12.899
		c0.06,1.075-0.478,1.732-1.553,1.971l-6.749,1.494c-1.194,0.238-1.852-0.299-1.971-1.553c-0.239-2.867-1.254-4.54-4.658-4.54
		c-4.419,0-4.718,2.807-4.718,7.406v8.6c0,4.599,0.298,7.405,4.718,7.405s4.718-2.807,4.718-5.733h-3.464
		c-1.135,0-1.792-0.656-1.792-1.791v-4.778c0-1.194,0.657-1.792,1.792-1.792h11.944c1.195,0,1.792,0.597,1.792,1.792v8.062
		c0,3.941-0.836,14.512-14.99,14.512c-14.154,0-14.989-10.57-14.989-14.512L78.55,32.263L78.55,32.263z"/>
	<path fill="#3C405B" d="M142.748,58.601c0,1.313-0.598,2.03-1.792,2.03h-6.689c-1.135,0-1.792-0.597-1.792-1.792v-5.195
		c0-1.194-0.597-1.792-1.792-1.792h-5.136c-1.135,0-1.792,0.597-1.792,1.792v5.195c0,1.195-0.597,1.792-1.792,1.792h-6.689
		c-1.135,0-1.792-0.717-1.792-2.03V33.279c0-7.525,1.195-15.527,14.632-15.527s14.631,8.002,14.631,15.527v25.322H142.748z
		 M132.476,33.279c0-2.867-0.418-4.3-4.36-4.3c-3.941,0-4.359,1.434-4.359,4.3v6.51c0,1.135,0.657,1.791,1.792,1.791h5.136
		c1.195-0.059,1.792-0.656,1.792-1.851L132.476,33.279L132.476,33.279z"/>
	<path fill="#3C405B" d="M156.781,30.89c0-1.194-0.597-1.792-1.791-1.792h-8.361c-1.135,0-1.792-0.657-1.792-1.792v-6.689
		c0-1.194,0.656-1.792,1.792-1.792h30.577c1.195,0,1.792,0.597,1.792,1.792v6.689c0,1.134-0.598,1.792-1.792,1.792h-8.361
		c-1.135,0-1.792,0.598-1.792,1.792v27.949c0,1.135-0.598,1.792-1.792,1.792h-6.689c-1.134,0-1.792-0.657-1.792-1.792V30.89
		L156.781,30.89z"/>
	<path fill="#3C405B" d="M191.06,18.826c1.134,0,1.791,0.657,1.791,1.792v14.93c0,1.135,0.657,1.792,1.792,1.792h5.732
		c1.194,0,1.792-0.657,1.792-1.792v-14.93c0-1.135,0.657-1.792,1.792-1.792h6.689c1.194,0,1.791,0.597,1.791,1.792v38.221
		c0,1.135-0.597,1.792-1.791,1.792h-6.689c-1.135,0-1.792-0.657-1.792-1.792v-9.436c0-1.195-0.597-1.792-1.792-1.792h-5.733
		c-1.135,0-1.792,0.598-1.792,1.792v9.436c0,1.135-0.598,1.792-1.792,1.792h-6.688c-1.135,0-1.792-0.657-1.792-1.792V20.618
		c0-1.194,0.597-1.792,1.792-1.792H191.06z"/>
	<path fill="#3C405B" d="M245.285,18.826c1.194,0,1.792,0.597,1.792,1.792v6.689c0,1.134-0.597,1.792-1.792,1.792h-14.453
		c-1.135,0-1.791,0.598-1.791,1.792v1.911c0,1.135,0.656,1.792,1.791,1.792h9.257c1.194,0,1.792,0.597,1.792,1.792v6.689
		c0,1.135-0.598,1.792-1.792,1.792h-9.257c-1.135,0-1.791,0.598-1.791,1.792v1.911c0,1.135,0.656,1.792,1.791,1.792h14.453
		c1.194,0,1.792,0.597,1.792,1.791v6.688c0,1.195-0.597,1.792-1.792,1.792h-25.083c-1.134,0-1.792-0.657-1.792-1.792V20.618
		c0-1.194,0.657-1.792,1.792-1.792H245.285z"/>
	<path fill="#3C405B" d="M283.147,57.406c0.836,1.552-0.12,3.225-1.971,3.225h-6.808c-0.597,0-1.134-0.298-1.373-0.836
		l-6.212-12.004c-0.119-0.18-0.298-0.298-0.477-0.298h-2.389c-1.075,0-1.852,0.776-1.852,1.852v9.437
		c0,1.075-0.777,1.851-1.852,1.851h-6.688c-1.076,0-1.853-0.776-1.853-1.851V20.677c0-1.075,0.777-1.851,1.853-1.851h13.079
		c10.63,0,14.931,4.539,14.931,14.333c0,5.554-1.374,9.436-4.539,11.705c-0.239,0.18-0.299,0.478-0.179,0.776L283.147,57.406z
		 M263.916,29.098c-1.075,0-1.852,0.776-1.852,1.852v4.419c0,1.075,0.777,1.851,1.852,1.851h3.045c2.867,0,4.3-0.358,4.3-4.061
		c0-3.703-1.433-4.062-4.3-4.062L263.916,29.098L263.916,29.098z"/>
</g>
<polygon fill="#101A49" points="36.151,37.352 39.38,36.844 40.068,38.425 42.611,39.497 40.068,40.569 39.38,42.149 36.151,41.641 
	32.923,42.149 32.237,40.569 29.693,39.497 32.237,38.425 32.923,36.844 "/>
<polygon fill="#101A49" points="52.109,25.864 55.337,25.356 56.024,26.936 58.567,28.008 56.024,29.08 55.337,30.661 
	52.109,30.152 48.88,30.661 48.193,29.08 45.65,28.008 48.193,26.936 48.88,25.356 "/>
<polygon fill="#101A49" points="27.216,26.502 30.445,25.994 31.131,27.574 33.674,28.646 31.131,29.719 30.445,31.299 
	27.216,30.791 23.987,31.299 23.301,29.719 20.758,28.646 23.301,27.574 23.987,25.994 "/>
<path fill="none" stroke="#FFFFFF" stroke-width="3" stroke-linecap="round" stroke-miterlimit="10" d="M39.556,28.008
	c0,0-7.504-8.554-5.244-20.681"/>
<path fill="none" stroke="#FFFFFF" stroke-width="3" stroke-linecap="round" stroke-miterlimit="10" d="M21.396,50.31
	c0,0-6.109-2.802-14.056,0.435"/>
</svg>
