<?xml version="1.0" encoding="utf-8"?>
<!-- Generator: Adobe Illustrator 16.0.0, SVG Export Plug-In . SVG Version: 6.00 Build 0)  -->
<!DOCTYPE svg PUBLIC "-//W3C//DTD SVG 1.1//EN" "http://www.w3.org/Graphics/SVG/1.1/DTD/svg11.dtd">
<svg version="1.1" id="Layer_1" xmlns="http://www.w3.org/2000/svg" xmlns:xlink="http://www.w3.org/1999/xlink" x="0px" y="0px"
	 width="458.814px" height="199.261px" viewBox="0 0 458.814 199.261" enable-background="new 0 0 458.814 199.261"
	 xml:space="preserve">
<g>
	<g enable-background="new    ">
		<path d="M103.591,51.175l12.092,8.061c5.608-5.433,13.318-8.061,21.205-8.061c9.288,0,16.648,2.979,22.958,9.112
			C166.68,53.979,175.618,51,184.38,51c18.927,0,33.998,11.392,33.998,32.596v67.12l1.577,1.577h-31.369l1.577-1.577V83.245
			c0-7.535-16.123-7.535-16.123,0v67.471l1.578,1.577h-31.37l1.578-1.577V83.245c0-7.36-16.123-7.535-16.123,0v67.471l1.577,1.577
			H99.911l1.577-1.577v-99.54H103.591z"/>
		<path d="M280.416,119.346h25.411c0,24.534-14.02,33.472-34.874,33.472c-22.782,0-36.452-12.617-36.452-33.822V85.172
			c0-18.576,9.113-34.173,36.803-34.173c21.73,0,34.348,10.69,34.348,32.421c0,24.534-23.308,28.916-43.986,35.399
			C261.665,129.16,279.891,129.686,280.416,119.346z M261.665,83.245v9.814c16.123-2.804,18.051-5.258,18.051-9.288
			C279.716,74.833,261.665,75.184,261.665,83.245z"/>
		<path d="M381.358,122.15c-1.402,24.359-18.051,32.421-36.102,31.019c-7.359-0.525-18.4-1.928-28.564-7.36l8.412-26.638
			c6.658,3.505,19.451,6.484,26.987,6.484c1.227-2.103,1.577-4.557,1.052-7.185c-9.113-4.206-36.276-12.969-33.998-38.204
			c1.402-14.546,8.587-21.906,14.721-25.235c15.597-9.289,38.028-1.228,43.986,1.401l-10.865,25.937
			c-3.68-1.401-14.02-3.855-18.4-3.855c-1.752-0.175-4.381,6.134-2.104,7.887C355.421,89.905,382.761,98.492,381.358,122.15z"/>
		<path d="M454.259,122.15c-1.401,24.359-18.05,32.421-36.1,31.019c-7.361-0.525-18.401-1.928-28.566-7.36l8.412-26.638
			c6.66,3.505,19.453,6.484,26.988,6.484c1.227-2.103,1.577-4.557,1.052-7.185c-9.113-4.206-36.276-12.969-33.998-38.204
			c1.401-14.546,8.587-21.906,14.721-25.235c15.597-9.289,38.028-1.228,43.987,1.401L439.89,82.369
			c-3.681-1.401-14.02-3.855-18.401-3.855c-1.753-0.175-4.382,6.134-2.103,7.887C428.323,89.905,455.661,98.492,454.259,122.15z"/>
	</g>
	<g>
		<g>
			<rect x="45.838" y="114.132" width="5.329" height="6.129"/>
			<rect x="34.913" y="130.386" width="5.329" height="6.127"/>
			<rect x="23.988" y="114.132" width="5.331" height="6.129"/>
			<rect x="53.565" y="97.613" width="5.328" height="6.129"/>
			<rect x="34.913" y="97.613" width="5.329" height="6.129"/>
			<rect x="16.262" y="97.613" width="5.33" height="6.129"/>
			<rect x="45.838" y="81.094" width="5.329" height="6.129"/>
			<rect x="23.988" y="81.094" width="5.331" height="6.129"/>
			<path d="M17.595,75.764c-0.534,0-1.333-0.266-1.864-0.532c-0.534-0.532-1.066-1.067-1.866-1.599
				C5.07,65.64-0.258,56.047,0.01,48.854c0-1.332,1.066-2.398,2.396-2.665c5.597-0.532,12.79,2.132,19.982,7.194
				c0-11.19,5.064-21.315,12.79-25.845c0.8-0.532,1.6-0.532,2.399,0c8.26,3.997,14.121,13.855,14.921,25.046
				c6.927-5.862,14.388-9.592,19.716-9.326c1.333,0,2.398,1.066,2.665,2.398c0.8,6.928-3.996,17.053-11.989,25.844
				c-1.067,1.066-2.133,2.398-3.465,3.465c-1.064,1.066-2.664,1.066-3.73-0.266c-1.064-1.066-1.064-2.665,0.268-3.73
				c1.066-1.066,2.131-1.865,2.931-3.197c6.662-7.195,9.857-14.122,10.392-18.918c-4.529,1.066-11.191,4.796-17.853,11.723
				c-0.798,0.801-1.865,1.066-2.931,0.533c-1.064-0.533-1.599-1.598-1.599-2.664c0-1.332,0.266-2.931,0-4.263
				c-0.266-9.326-4.528-17.853-10.658-21.316c-5.86,4.263-9.324,13.057-9.059,22.382c0,1.066,0.267,2.398,0.267,3.73
				c0.268,1.066-0.267,2.131-1.332,2.664c-1.066,0.533-2.133,0.266-2.933-0.266c-6.394-6.129-13.055-9.06-17.584-9.859
				C6.67,56.047,10.4,62.976,17.595,69.37c0.532,0.532,1.065,1.065,1.599,1.331c1.065,1.067,1.332,2.666,0.266,3.732
				C18.927,75.498,18.127,75.764,17.595,75.764z"/>
			<path d="M37.578,152.5c-19.983,0-35.172-33.305-35.172-54.621c0-20.249,13.057-32.506,35.172-32.506
				c5.861,0,11.19,0.799,15.721,2.664c0.798,0.268,1.864,0.799,2.664,1.066c7.46,3.73,16.52,11.457,16.52,28.775
				C72.482,119.195,57.562,152.5,37.578,152.5z M37.578,70.701c-9.059,0-29.842,2.666-29.842,27.178
				c0,21.048,14.652,49.292,29.842,49.292c14.921,0,29.842-28.244,29.842-49.292c0-11.725-4.529-19.717-13.589-23.98
				c-0.8-0.266-1.599-0.799-2.398-1.064C47.438,71.234,42.641,70.701,37.578,70.701z"/>
		</g>
	</g>
</g>
<g>
	<g enable-background="new    ">
		<path d="M117.573,180.076h-1.428v-6.111c0-1.273-0.199-2.212-0.598-2.813c-0.399-0.602-1.005-0.903-1.817-0.903
			c-0.42,0-0.815,0.077-1.187,0.231s-0.714,0.371-1.029,0.65c-0.315,0.28-0.592,0.613-0.83,0.998
			c-0.238,0.385-0.42,0.809-0.546,1.271v6.678h-1.428v-6.111c0-1.302-0.196-2.247-0.588-2.835s-0.994-0.882-1.806-0.882
			c-0.826,0-1.561,0.287-2.205,0.861c-0.644,0.574-1.106,1.33-1.386,2.268v6.699h-1.428v-10.941h1.302v2.479
			c0.448-0.84,1.036-1.494,1.764-1.964c0.728-0.469,1.533-0.703,2.415-0.703c0.924,0,1.666,0.259,2.226,0.777
			c0.56,0.518,0.896,1.196,1.008,2.036c1.022-1.875,2.436-2.813,4.242-2.813c0.602,0,1.116,0.112,1.543,0.336
			c0.427,0.224,0.77,0.543,1.029,0.955c0.259,0.413,0.448,0.91,0.567,1.491c0.119,0.581,0.179,1.229,0.179,1.942V180.076z"/>
		<path d="M126.308,180.286c-0.798,0-1.533-0.15-2.205-0.451c-0.672-0.301-1.253-0.714-1.743-1.239
			c-0.49-0.525-0.872-1.131-1.145-1.816s-0.41-1.421-0.41-2.205c0-0.77,0.137-1.494,0.41-2.174c0.273-0.679,0.654-1.273,1.145-1.785
			c0.49-0.511,1.067-0.916,1.732-1.218c0.665-0.301,1.396-0.451,2.194-0.451c0.798,0,1.53,0.15,2.195,0.451
			c0.665,0.302,1.235,0.711,1.711,1.229c0.476,0.519,0.847,1.113,1.113,1.785s0.399,1.386,0.399,2.142
			c0,0.112-0.003,0.225-0.01,0.337c-0.007,0.111-0.018,0.188-0.032,0.23h-9.345c0.042,0.588,0.178,1.131,0.41,1.628
			c0.231,0.497,0.525,0.927,0.882,1.291s0.77,0.647,1.239,0.851s0.969,0.305,1.501,0.305c0.364,0,0.721-0.049,1.071-0.147
			c0.35-0.098,0.672-0.23,0.966-0.398s0.557-0.375,0.788-0.62c0.231-0.244,0.41-0.514,0.536-0.809l1.239,0.337
			c-0.168,0.405-0.406,0.773-0.714,1.102c-0.308,0.329-0.665,0.616-1.071,0.861c-0.406,0.245-0.854,0.435-1.344,0.567
			C127.33,180.219,126.826,180.286,126.308,180.286z M130.34,174.028c-0.042-0.588-0.179-1.124-0.41-1.606
			c-0.231-0.483-0.525-0.899-0.882-1.25c-0.357-0.35-0.774-0.622-1.25-0.818c-0.476-0.196-0.98-0.294-1.512-0.294
			s-1.036,0.098-1.512,0.294c-0.476,0.196-0.893,0.469-1.25,0.818c-0.357,0.351-0.644,0.771-0.861,1.261
			c-0.217,0.49-0.347,1.021-0.389,1.596H130.34z"/>
		<path d="M137.732,180.286c-0.56,0-1.071-0.088-1.533-0.263s-0.858-0.416-1.187-0.725c-0.329-0.308-0.584-0.664-0.767-1.07
			s-0.273-0.833-0.273-1.281c0-0.504,0.112-0.963,0.336-1.376c0.224-0.412,0.539-0.767,0.945-1.061
			c0.406-0.294,0.893-0.521,1.459-0.682s1.193-0.242,1.879-0.242c0.546,0,1.106,0.05,1.68,0.147c0.574,0.098,1.084,0.238,1.533,0.42
			v-0.987c0-0.966-0.276-1.732-0.83-2.3c-0.553-0.566-1.298-0.85-2.236-0.85c-0.588,0-1.173,0.111-1.753,0.336
			c-0.581,0.224-1.173,0.546-1.774,0.966l-0.504-0.945c0.714-0.476,1.407-0.833,2.079-1.071c0.672-0.237,1.372-0.356,2.1-0.356
			c1.33,0,2.387,0.385,3.171,1.155c0.784,0.77,1.176,1.834,1.176,3.191v4.936c0,0.392,0.168,0.588,0.504,0.588v1.26
			c-0.112,0.014-0.217,0.024-0.315,0.031c-0.098,0.007-0.182,0.011-0.252,0.011c-0.28,0-0.536-0.084-0.767-0.252
			s-0.361-0.42-0.389-0.756l-0.042-0.861c-0.476,0.645-1.103,1.145-1.879,1.502C139.318,180.107,138.53,180.286,137.732,180.286z
			 M138.089,179.194c0.63,0,1.256-0.137,1.879-0.409c0.623-0.273,1.116-0.647,1.48-1.124c0.098-0.126,0.182-0.263,0.252-0.409
			c0.07-0.147,0.105-0.284,0.105-0.41v-1.784c-0.476-0.183-0.973-0.322-1.491-0.421c-0.518-0.098-1.022-0.146-1.512-0.146
			c-1.022,0-1.852,0.207-2.488,0.619c-0.637,0.413-0.956,0.984-0.956,1.712c0,0.294,0.056,0.581,0.168,0.861
			c0.112,0.279,0.283,0.532,0.515,0.756c0.231,0.224,0.514,0.406,0.85,0.546S137.627,179.194,138.089,179.194z"/>
		<path d="M147.392,164.746h1.428v12.853c0,0.405,0.112,0.724,0.336,0.955s0.539,0.347,0.945,0.347c0.154,0,0.336-0.021,0.546-0.063
			s0.406-0.098,0.588-0.168l0.252,1.155c-0.266,0.112-0.591,0.203-0.977,0.273c-0.385,0.069-0.717,0.104-0.998,0.104
			c-0.658,0-1.176-0.186-1.554-0.557s-0.567-0.893-0.567-1.564V164.746z"/>
		<path d="M157.535,180.286c-0.854,0-1.687-0.14-2.499-0.42s-1.512-0.686-2.1-1.218l0.651-0.966c0.616,0.504,1.243,0.882,1.88,1.134
			c0.637,0.252,1.319,0.378,2.047,0.378c0.882,0,1.585-0.179,2.11-0.536c0.525-0.356,0.788-0.864,0.788-1.522
			c0-0.308-0.07-0.562-0.21-0.766c-0.14-0.203-0.347-0.382-0.62-0.536c-0.273-0.153-0.616-0.29-1.029-0.409
			c-0.413-0.119-0.893-0.241-1.438-0.367c-0.63-0.154-1.176-0.309-1.638-0.463c-0.462-0.153-0.844-0.328-1.145-0.524
			c-0.301-0.196-0.525-0.438-0.672-0.725s-0.221-0.647-0.221-1.081c0-0.547,0.108-1.029,0.326-1.449
			c0.217-0.42,0.511-0.767,0.882-1.04c0.371-0.272,0.805-0.479,1.302-0.619c0.497-0.14,1.025-0.21,1.585-0.21
			c0.84,0,1.603,0.137,2.289,0.409c0.686,0.273,1.239,0.634,1.659,1.082l-0.693,0.84c-0.406-0.42-0.899-0.735-1.48-0.945
			s-1.187-0.314-1.816-0.314c-0.378,0-0.728,0.038-1.05,0.115c-0.322,0.077-0.606,0.199-0.851,0.367
			c-0.245,0.168-0.438,0.382-0.578,0.641c-0.14,0.259-0.21,0.563-0.21,0.913c0,0.295,0.049,0.532,0.147,0.715
			c0.098,0.182,0.259,0.339,0.483,0.472c0.224,0.134,0.507,0.252,0.851,0.357c0.343,0.105,0.759,0.214,1.25,0.325
			c0.7,0.168,1.316,0.336,1.848,0.504c0.532,0.168,0.977,0.364,1.333,0.589c0.357,0.224,0.626,0.497,0.809,0.818
			c0.182,0.322,0.273,0.714,0.273,1.176c0,1.009-0.385,1.807-1.155,2.395S158.836,180.286,157.535,180.286z"/>
		<path d="M176.225,180.286c-0.798,0-1.533-0.15-2.205-0.451c-0.672-0.301-1.253-0.714-1.743-1.239
			c-0.49-0.525-0.872-1.131-1.145-1.816s-0.41-1.421-0.41-2.205c0-0.77,0.137-1.494,0.41-2.174c0.273-0.679,0.654-1.273,1.145-1.785
			c0.49-0.511,1.067-0.916,1.732-1.218c0.665-0.301,1.396-0.451,2.194-0.451c0.798,0,1.53,0.15,2.195,0.451
			c0.665,0.302,1.235,0.711,1.711,1.229c0.476,0.519,0.847,1.113,1.113,1.785s0.399,1.386,0.399,2.142
			c0,0.112-0.003,0.225-0.01,0.337c-0.007,0.111-0.018,0.188-0.032,0.23h-9.345c0.042,0.588,0.178,1.131,0.41,1.628
			c0.231,0.497,0.525,0.927,0.882,1.291s0.77,0.647,1.239,0.851s0.969,0.305,1.501,0.305c0.364,0,0.721-0.049,1.071-0.147
			c0.35-0.098,0.672-0.23,0.966-0.398s0.557-0.375,0.788-0.62c0.231-0.244,0.41-0.514,0.536-0.809l1.239,0.337
			c-0.168,0.405-0.406,0.773-0.714,1.102c-0.308,0.329-0.665,0.616-1.071,0.861c-0.406,0.245-0.854,0.435-1.344,0.567
			C177.247,180.219,176.743,180.286,176.225,180.286z M180.257,174.028c-0.042-0.588-0.179-1.124-0.41-1.606
			c-0.231-0.483-0.525-0.899-0.882-1.25c-0.357-0.35-0.774-0.622-1.25-0.818c-0.476-0.196-0.98-0.294-1.512-0.294
			s-1.036,0.098-1.512,0.294c-0.476,0.196-0.893,0.469-1.25,0.818c-0.357,0.351-0.644,0.771-0.861,1.261
			c-0.217,0.49-0.347,1.021-0.389,1.596H180.257z"/>
		<path d="M184.813,164.746h1.428v12.853c0,0.405,0.112,0.724,0.336,0.955s0.539,0.347,0.945,0.347c0.154,0,0.336-0.021,0.546-0.063
			s0.406-0.098,0.588-0.168l0.252,1.155c-0.266,0.112-0.591,0.203-0.977,0.273c-0.385,0.069-0.717,0.104-0.998,0.104
			c-0.658,0-1.176-0.186-1.554-0.557s-0.567-0.893-0.567-1.564V164.746z"/>
		<path d="M196.069,180.286c-0.798,0-1.533-0.15-2.205-0.451c-0.672-0.301-1.253-0.714-1.743-1.239
			c-0.49-0.525-0.872-1.131-1.145-1.816s-0.41-1.421-0.41-2.205c0-0.77,0.137-1.494,0.41-2.174c0.273-0.679,0.654-1.273,1.145-1.785
			c0.49-0.511,1.067-0.916,1.732-1.218c0.665-0.301,1.396-0.451,2.194-0.451c0.798,0,1.53,0.15,2.195,0.451
			c0.665,0.302,1.235,0.711,1.711,1.229c0.476,0.519,0.847,1.113,1.113,1.785s0.399,1.386,0.399,2.142
			c0,0.112-0.003,0.225-0.01,0.337c-0.007,0.111-0.018,0.188-0.032,0.23h-9.345c0.042,0.588,0.178,1.131,0.41,1.628
			c0.231,0.497,0.525,0.927,0.882,1.291s0.77,0.647,1.239,0.851s0.969,0.305,1.501,0.305c0.364,0,0.721-0.049,1.071-0.147
			c0.35-0.098,0.672-0.23,0.966-0.398s0.557-0.375,0.788-0.62c0.231-0.244,0.41-0.514,0.536-0.809l1.239,0.337
			c-0.168,0.405-0.406,0.773-0.714,1.102c-0.308,0.329-0.665,0.616-1.071,0.861c-0.406,0.245-0.854,0.435-1.344,0.567
			C197.091,180.219,196.587,180.286,196.069,180.286z M200.101,174.028c-0.042-0.588-0.179-1.124-0.41-1.606
			c-0.231-0.483-0.525-0.899-0.882-1.25c-0.357-0.35-0.774-0.622-1.25-0.818c-0.476-0.196-0.98-0.294-1.512-0.294
			s-1.036,0.098-1.512,0.294c-0.476,0.196-0.893,0.469-1.25,0.818c-0.357,0.351-0.644,0.771-0.861,1.261
			c-0.217,0.49-0.347,1.021-0.389,1.596H200.101z"/>
		<path d="M203.881,174.574c0-0.77,0.133-1.498,0.399-2.184c0.266-0.687,0.641-1.285,1.124-1.796
			c0.483-0.511,1.061-0.913,1.733-1.208c0.672-0.294,1.414-0.44,2.226-0.44c1.036,0,1.939,0.234,2.709,0.703
			c0.77,0.47,1.351,1.103,1.743,1.9l-1.386,0.441c-0.308-0.56-0.735-0.997-1.281-1.312s-1.155-0.473-1.827-0.473
			c-0.56,0-1.082,0.112-1.564,0.336c-0.483,0.225-0.903,0.528-1.26,0.914c-0.357,0.385-0.637,0.843-0.84,1.375
			c-0.203,0.532-0.304,1.113-0.304,1.743c0,0.616,0.105,1.197,0.315,1.743s0.497,1.019,0.861,1.417
			c0.364,0.399,0.788,0.714,1.271,0.945s0.998,0.347,1.543,0.347c0.35,0,0.696-0.049,1.04-0.147
			c0.343-0.098,0.662-0.234,0.956-0.409s0.546-0.374,0.756-0.599c0.21-0.224,0.357-0.462,0.441-0.714l1.386,0.42
			c-0.154,0.393-0.378,0.753-0.672,1.081c-0.294,0.329-0.641,0.616-1.04,0.861s-0.84,0.435-1.323,0.567
			c-0.483,0.133-0.983,0.199-1.501,0.199c-0.798,0-1.533-0.15-2.205-0.451c-0.672-0.301-1.253-0.714-1.743-1.239
			c-0.49-0.525-0.872-1.131-1.145-1.816S203.881,175.358,203.881,174.574z"/>
		<path d="M222.424,179.55c-0.084,0.042-0.207,0.099-0.368,0.168c-0.161,0.07-0.347,0.141-0.557,0.21
			c-0.21,0.07-0.448,0.134-0.714,0.189c-0.266,0.056-0.546,0.084-0.84,0.084c-0.308,0-0.602-0.042-0.882-0.126
			s-0.525-0.213-0.735-0.389c-0.21-0.175-0.378-0.396-0.504-0.661s-0.189-0.574-0.189-0.924v-7.833h-1.512v-1.135h1.512v-3.695
			h1.428v3.695h2.52v1.135h-2.52v7.434c0.028,0.406,0.168,0.703,0.42,0.893c0.252,0.189,0.553,0.283,0.903,0.283
			c0.406,0,0.763-0.066,1.071-0.199s0.504-0.228,0.588-0.283L222.424,179.55z"/>
		<path d="M230.551,170.395c-0.966,0.028-1.806,0.294-2.52,0.798c-0.714,0.504-1.218,1.197-1.512,2.079v6.804h-1.428v-10.941h1.344
			v2.625c0.378-0.77,0.875-1.41,1.491-1.921c0.616-0.511,1.281-0.767,1.995-0.767c0.125,0,0.244,0,0.357,0
			c0.111,0,0.202,0.007,0.272,0.021V170.395z"/>
		<path d="M237.669,180.286c-0.797,0-1.529-0.15-2.193-0.451c-0.666-0.301-1.239-0.711-1.723-1.229
			c-0.482-0.518-0.857-1.12-1.123-1.807c-0.267-0.686-0.399-1.406-0.399-2.163c0-0.77,0.137-1.497,0.409-2.184
			c0.273-0.686,0.651-1.288,1.135-1.806c0.482-0.519,1.057-0.932,1.722-1.239s1.39-0.462,2.173-0.462
			c0.785,0,1.51,0.154,2.174,0.462c0.665,0.308,1.239,0.721,1.723,1.239c0.482,0.518,0.861,1.12,1.134,1.806
			c0.272,0.687,0.409,1.414,0.409,2.184c0,0.757-0.137,1.478-0.409,2.163c-0.272,0.687-0.651,1.289-1.134,1.807
			c-0.483,0.518-1.058,0.928-1.723,1.229C239.179,180.135,238.454,180.286,237.669,180.286z M233.7,174.658
			c0,0.616,0.102,1.187,0.305,1.712c0.203,0.524,0.483,0.986,0.84,1.386c0.357,0.398,0.777,0.711,1.26,0.935
			c0.483,0.224,0.998,0.336,1.544,0.336s1.061-0.115,1.544-0.347c0.482-0.231,0.906-0.546,1.27-0.945
			c0.365-0.398,0.652-0.864,0.861-1.396c0.211-0.531,0.315-1.105,0.315-1.722c0-0.602-0.104-1.173-0.315-1.712
			c-0.209-0.538-0.496-1.008-0.861-1.406c-0.363-0.399-0.783-0.715-1.26-0.945c-0.476-0.231-0.986-0.347-1.533-0.347
			c-0.545,0-1.061,0.115-1.543,0.347c-0.482,0.23-0.902,0.55-1.26,0.955c-0.357,0.406-0.641,0.879-0.851,1.418
			S233.7,174.042,233.7,174.658z"/>
		<path d="M255.624,180.076h-1.428v-6.111c0-1.302-0.189-2.247-0.566-2.835c-0.379-0.588-0.967-0.882-1.764-0.882
			c-0.421,0-0.841,0.077-1.261,0.231s-0.812,0.371-1.176,0.65c-0.364,0.28-0.683,0.613-0.956,0.998
			c-0.272,0.385-0.479,0.802-0.619,1.249v6.699h-1.428v-10.941h1.302v2.479c0.224-0.392,0.501-0.753,0.829-1.082
			c0.329-0.328,0.697-0.612,1.104-0.85c0.405-0.238,0.836-0.421,1.291-0.547s0.928-0.188,1.418-0.188
			c0.615,0,1.13,0.112,1.543,0.336c0.412,0.224,0.746,0.539,0.998,0.945s0.434,0.902,0.545,1.49
			c0.112,0.589,0.168,1.239,0.168,1.953V180.076z"/>
		<path d="M259.573,166.845v-2.1h1.428v2.1H259.573z M259.573,180.076v-10.941h1.428v10.941H259.573z"/>
		<path d="M264.339,174.574c0-0.77,0.133-1.498,0.398-2.184c0.267-0.687,0.641-1.285,1.124-1.796s1.061-0.913,1.733-1.208
			c0.672-0.294,1.413-0.44,2.225-0.44c1.037,0,1.939,0.234,2.709,0.703c0.771,0.47,1.352,1.103,1.744,1.9l-1.387,0.441
			c-0.308-0.56-0.734-0.997-1.281-1.312c-0.545-0.315-1.154-0.473-1.826-0.473c-0.561,0-1.082,0.112-1.564,0.336
			c-0.483,0.225-0.903,0.528-1.26,0.914c-0.357,0.385-0.638,0.843-0.841,1.375c-0.202,0.532-0.304,1.113-0.304,1.743
			c0,0.616,0.104,1.197,0.314,1.743s0.496,1.019,0.861,1.417c0.363,0.399,0.787,0.714,1.27,0.945
			c0.483,0.231,0.998,0.347,1.544,0.347c0.351,0,0.696-0.049,1.04-0.147c0.343-0.098,0.661-0.234,0.955-0.409
			s0.546-0.374,0.756-0.599c0.211-0.224,0.357-0.462,0.441-0.714l1.386,0.42c-0.154,0.393-0.378,0.753-0.672,1.081
			c-0.294,0.329-0.641,0.616-1.04,0.861c-0.398,0.245-0.84,0.435-1.322,0.567c-0.483,0.133-0.984,0.199-1.502,0.199
			c-0.798,0-1.533-0.15-2.205-0.451s-1.253-0.714-1.742-1.239c-0.49-0.525-0.872-1.131-1.145-1.816
			C264.476,176.093,264.339,175.358,264.339,174.574z"/>
		<path d="M287.628,180.286c-0.854,0-1.688-0.14-2.499-0.42s-1.513-0.686-2.101-1.218l0.651-0.966
			c0.616,0.504,1.243,0.882,1.88,1.134s1.319,0.378,2.047,0.378c0.883,0,1.586-0.179,2.111-0.536
			c0.524-0.356,0.787-0.864,0.787-1.522c0-0.308-0.07-0.562-0.21-0.766s-0.347-0.382-0.62-0.536
			c-0.272-0.153-0.615-0.29-1.028-0.409s-0.893-0.241-1.438-0.367c-0.63-0.154-1.176-0.309-1.639-0.463
			c-0.461-0.153-0.844-0.328-1.145-0.524s-0.524-0.438-0.672-0.725c-0.146-0.287-0.221-0.647-0.221-1.081
			c0-0.547,0.109-1.029,0.326-1.449s0.511-0.767,0.882-1.04c0.371-0.272,0.806-0.479,1.302-0.619c0.497-0.14,1.025-0.21,1.586-0.21
			c0.84,0,1.604,0.137,2.289,0.409c0.686,0.273,1.238,0.634,1.658,1.082l-0.692,0.84c-0.406-0.42-0.899-0.735-1.48-0.945
			s-1.187-0.314-1.816-0.314c-0.378,0-0.728,0.038-1.05,0.115s-0.605,0.199-0.851,0.367s-0.438,0.382-0.577,0.641
			c-0.141,0.259-0.211,0.563-0.211,0.913c0,0.295,0.049,0.532,0.147,0.715c0.098,0.182,0.259,0.339,0.483,0.472
			c0.223,0.134,0.507,0.252,0.85,0.357c0.344,0.105,0.76,0.214,1.25,0.325c0.699,0.168,1.316,0.336,1.848,0.504
			c0.532,0.168,0.977,0.364,1.334,0.589c0.357,0.224,0.627,0.497,0.809,0.818c0.182,0.322,0.273,0.714,0.273,1.176
			c0,1.009-0.386,1.807-1.156,2.395C289.966,179.992,288.93,180.286,287.628,180.286z"/>
		<path d="M295.167,166.845v-2.1h1.428v2.1H295.167z M295.167,180.076v-10.941h1.428v10.941H295.167z"/>
		<path d="M305.079,180.223c-0.756,0-1.446-0.158-2.068-0.473c-0.623-0.315-1.162-0.731-1.617-1.25
			c-0.455-0.518-0.809-1.113-1.061-1.785s-0.379-1.364-0.379-2.079c0-0.756,0.123-1.48,0.368-2.173
			c0.245-0.693,0.591-1.299,1.04-1.816c0.447-0.519,0.982-0.932,1.605-1.239s1.312-0.462,2.068-0.462
			c0.938,0,1.75,0.234,2.437,0.703c0.687,0.47,1.274,1.061,1.765,1.774v-2.289h1.28v10.983c0,0.756-0.144,1.425-0.431,2.006
			c-0.287,0.58-0.672,1.067-1.154,1.459c-0.483,0.392-1.055,0.686-1.712,0.882c-0.658,0.196-1.351,0.294-2.079,0.294
			c-1.246,0-2.254-0.224-3.023-0.672c-0.771-0.448-1.394-1.05-1.869-1.806l0.882-0.693c0.434,0.7,1.008,1.215,1.722,1.544
			c0.715,0.329,1.477,0.493,2.289,0.493c0.532,0,1.039-0.073,1.522-0.221c0.483-0.146,0.903-0.364,1.261-0.65
			c0.356-0.287,0.641-0.651,0.85-1.092c0.211-0.441,0.315-0.956,0.315-1.544v-2.163c-0.435,0.7-1.012,1.253-1.732,1.659
			C306.636,180.02,305.877,180.223,305.079,180.223z M305.478,179.026c0.42,0,0.833-0.077,1.239-0.231
			c0.405-0.153,0.773-0.36,1.103-0.619c0.328-0.259,0.605-0.55,0.83-0.872c0.223-0.321,0.37-0.65,0.44-0.986v-3.381
			c-0.154-0.393-0.368-0.757-0.641-1.093s-0.577-0.622-0.913-0.86s-0.697-0.427-1.082-0.567c-0.385-0.14-0.773-0.21-1.166-0.21
			c-0.615,0-1.162,0.13-1.637,0.389c-0.477,0.259-0.883,0.599-1.219,1.019s-0.592,0.896-0.767,1.428
			c-0.175,0.532-0.263,1.071-0.263,1.617c0,0.588,0.105,1.148,0.315,1.68c0.21,0.532,0.497,0.998,0.86,1.396
			c0.365,0.399,0.795,0.714,1.292,0.945S304.903,179.026,305.478,179.026z"/>
		<path d="M323.769,180.076h-1.428v-6.111c0-1.302-0.189-2.247-0.567-2.835s-0.966-0.882-1.764-0.882
			c-0.421,0-0.841,0.077-1.261,0.231s-0.812,0.371-1.176,0.65c-0.363,0.28-0.682,0.613-0.955,0.998s-0.48,0.802-0.619,1.249v6.699
			h-1.428v-10.941h1.301v2.479c0.225-0.392,0.501-0.753,0.83-1.082c0.328-0.328,0.696-0.612,1.103-0.85
			c0.405-0.238,0.837-0.421,1.292-0.547c0.454-0.126,0.927-0.188,1.417-0.188c0.616,0,1.13,0.112,1.544,0.336
			c0.412,0.224,0.745,0.539,0.997,0.945s0.434,0.902,0.546,1.49c0.111,0.589,0.168,1.239,0.168,1.953V180.076z"/>
		<path d="M331.098,180.286c-1.147,0-2.017-0.396-2.604-1.187s-0.881-1.971-0.881-3.538v-6.427h1.428v6.175
			c0,2.478,0.847,3.717,2.541,3.717c0.42,0,0.832-0.07,1.238-0.21s0.781-0.343,1.123-0.609c0.344-0.266,0.652-0.581,0.925-0.945
			c0.272-0.363,0.493-0.776,0.661-1.238v-6.889h1.428v9.094c0,0.392,0.176,0.588,0.525,0.588v1.26
			c-0.28,0.042-0.477,0.063-0.588,0.063c-0.322,0-0.599-0.099-0.83-0.295c-0.23-0.195-0.346-0.44-0.346-0.734v-1.512
			c-0.49,0.854-1.142,1.516-1.953,1.984C332.952,180.051,332.063,180.286,331.098,180.286z"/>
		<path d="M346.784,180.286c-0.924,0-1.743-0.234-2.457-0.703s-1.288-1.061-1.723-1.774v6.74h-1.428v-15.414h1.281v2.121
			c0.447-0.686,1.029-1.242,1.743-1.669s1.491-0.641,2.331-0.641c0.756,0,1.452,0.157,2.09,0.473
			c0.637,0.314,1.186,0.734,1.648,1.26c0.461,0.525,0.822,1.131,1.081,1.816c0.259,0.687,0.389,1.394,0.389,2.121
			c0,0.771-0.119,1.498-0.357,2.184c-0.237,0.687-0.577,1.289-1.019,1.807s-0.966,0.928-1.574,1.229
			C348.181,180.135,347.512,180.286,346.784,180.286z M346.386,179.026c0.588,0,1.119-0.126,1.596-0.378
			c0.476-0.252,0.885-0.585,1.229-0.998c0.342-0.412,0.605-0.882,0.787-1.406c0.182-0.525,0.273-1.067,0.273-1.628
			c0-0.588-0.105-1.147-0.315-1.68s-0.497-1.001-0.86-1.407c-0.365-0.406-0.795-0.728-1.292-0.966s-1.032-0.357-1.606-0.357
			c-0.364,0-0.742,0.073-1.135,0.221c-0.392,0.146-0.763,0.343-1.112,0.588c-0.351,0.245-0.647,0.532-0.893,0.861
			s-0.396,0.676-0.452,1.039v3.36c0.168,0.392,0.382,0.756,0.641,1.092c0.26,0.336,0.553,0.627,0.883,0.871
			c0.328,0.245,0.686,0.438,1.07,0.578S345.979,179.026,346.386,179.026z"/>
		<path d="M365.117,180.286c-0.854,0-1.687-0.14-2.499-0.42s-1.512-0.686-2.1-1.218l0.65-0.966c0.616,0.504,1.242,0.882,1.88,1.134
			c0.637,0.252,1.319,0.378,2.048,0.378c0.881,0,1.585-0.179,2.109-0.536c0.525-0.356,0.788-0.864,0.788-1.522
			c0-0.308-0.07-0.562-0.21-0.766c-0.141-0.203-0.347-0.382-0.619-0.536c-0.273-0.153-0.617-0.29-1.029-0.409
			c-0.413-0.119-0.893-0.241-1.438-0.367c-0.63-0.154-1.177-0.309-1.638-0.463c-0.463-0.153-0.844-0.328-1.145-0.524
			c-0.302-0.196-0.525-0.438-0.672-0.725c-0.147-0.287-0.221-0.647-0.221-1.081c0-0.547,0.107-1.029,0.325-1.449
			c0.217-0.42,0.511-0.767,0.882-1.04c0.371-0.272,0.805-0.479,1.303-0.619c0.496-0.14,1.025-0.21,1.585-0.21
			c0.84,0,1.603,0.137,2.289,0.409c0.686,0.273,1.239,0.634,1.659,1.082l-0.693,0.84c-0.406-0.42-0.899-0.735-1.48-0.945
			s-1.187-0.314-1.816-0.314c-0.378,0-0.729,0.038-1.05,0.115c-0.322,0.077-0.606,0.199-0.851,0.367
			c-0.245,0.168-0.438,0.382-0.578,0.641c-0.14,0.259-0.209,0.563-0.209,0.913c0,0.295,0.049,0.532,0.146,0.715
			c0.098,0.182,0.259,0.339,0.482,0.472c0.225,0.134,0.508,0.252,0.852,0.357c0.342,0.105,0.759,0.214,1.249,0.325
			c0.7,0.168,1.315,0.336,1.849,0.504c0.531,0.168,0.977,0.364,1.333,0.589c0.356,0.224,0.626,0.497,0.809,0.818
			c0.182,0.322,0.272,0.714,0.272,1.176c0,1.009-0.385,1.807-1.154,2.395C367.455,179.992,366.419,180.286,365.117,180.286z"/>
		<path d="M373.034,183.457c0.07,0.014,0.14,0.024,0.21,0.031c0.069,0.007,0.14,0.011,0.21,0.011c0.14,0,0.291-0.014,0.451-0.042
			c0.161-0.028,0.276-0.056,0.347-0.084c0.069-0.028,0.144-0.088,0.221-0.179s0.175-0.252,0.294-0.482
			c0.119-0.231,0.27-0.554,0.451-0.966c0.182-0.413,0.413-0.97,0.693-1.67l-4.768-10.941h1.492l4.053,9.618l3.738-9.618h1.364
			l-5.69,14.112c-0.211,0.518-0.494,0.903-0.852,1.155c-0.356,0.252-0.857,0.378-1.501,0.378c-0.267,0-0.504-0.021-0.714-0.063
			V183.457z"/>
		<path d="M388.154,180.286c-0.854,0-1.687-0.14-2.499-0.42s-1.512-0.686-2.1-1.218l0.65-0.966c0.616,0.504,1.242,0.882,1.88,1.134
			c0.637,0.252,1.319,0.378,2.048,0.378c0.881,0,1.585-0.179,2.109-0.536c0.525-0.356,0.788-0.864,0.788-1.522
			c0-0.308-0.07-0.562-0.21-0.766c-0.141-0.203-0.347-0.382-0.619-0.536c-0.273-0.153-0.617-0.29-1.029-0.409
			c-0.413-0.119-0.893-0.241-1.438-0.367c-0.63-0.154-1.177-0.309-1.638-0.463c-0.463-0.153-0.844-0.328-1.145-0.524
			c-0.302-0.196-0.525-0.438-0.672-0.725c-0.147-0.287-0.221-0.647-0.221-1.081c0-0.547,0.107-1.029,0.325-1.449
			c0.217-0.42,0.511-0.767,0.882-1.04c0.371-0.272,0.805-0.479,1.303-0.619c0.496-0.14,1.025-0.21,1.585-0.21
			c0.84,0,1.603,0.137,2.289,0.409c0.686,0.273,1.239,0.634,1.659,1.082l-0.693,0.84c-0.406-0.42-0.899-0.735-1.48-0.945
			s-1.187-0.314-1.816-0.314c-0.378,0-0.729,0.038-1.05,0.115c-0.322,0.077-0.606,0.199-0.851,0.367
			c-0.245,0.168-0.438,0.382-0.578,0.641c-0.14,0.259-0.209,0.563-0.209,0.913c0,0.295,0.049,0.532,0.146,0.715
			c0.098,0.182,0.259,0.339,0.482,0.472c0.225,0.134,0.508,0.252,0.852,0.357c0.342,0.105,0.759,0.214,1.249,0.325
			c0.7,0.168,1.315,0.336,1.849,0.504c0.531,0.168,0.977,0.364,1.333,0.589c0.356,0.224,0.626,0.497,0.809,0.818
			c0.182,0.322,0.272,0.714,0.272,1.176c0,1.009-0.385,1.807-1.154,2.395C390.492,179.992,389.456,180.286,388.154,180.286z"/>
		<path d="M400.964,179.55c-0.084,0.042-0.207,0.099-0.367,0.168c-0.161,0.07-0.347,0.141-0.557,0.21
			c-0.21,0.07-0.448,0.134-0.714,0.189c-0.267,0.056-0.546,0.084-0.84,0.084c-0.308,0-0.603-0.042-0.882-0.126
			c-0.281-0.084-0.525-0.213-0.735-0.389c-0.21-0.175-0.378-0.396-0.504-0.661s-0.188-0.574-0.188-0.924v-7.833h-1.513v-1.135h1.513
			v-3.695h1.428v3.695h2.52v1.135h-2.52v7.434c0.027,0.406,0.168,0.703,0.42,0.893s0.553,0.283,0.902,0.283
			c0.406,0,0.764-0.066,1.071-0.199s0.504-0.228,0.588-0.283L400.964,179.55z"/>
		<path d="M408.419,180.286c-0.798,0-1.533-0.15-2.205-0.451s-1.253-0.714-1.742-1.239c-0.49-0.525-0.872-1.131-1.145-1.816
			c-0.273-0.686-0.41-1.421-0.41-2.205c0-0.77,0.137-1.494,0.41-2.174c0.272-0.679,0.654-1.273,1.145-1.785
			c0.489-0.511,1.066-0.916,1.732-1.218c0.664-0.301,1.396-0.451,2.193-0.451c0.799,0,1.53,0.15,2.195,0.451
			c0.664,0.302,1.235,0.711,1.711,1.229c0.477,0.519,0.848,1.113,1.113,1.785s0.398,1.386,0.398,2.142
			c0,0.112-0.003,0.225-0.01,0.337c-0.008,0.111-0.018,0.188-0.031,0.23h-9.346c0.043,0.588,0.179,1.131,0.41,1.628
			c0.23,0.497,0.525,0.927,0.882,1.291s0.77,0.647,1.239,0.851c0.469,0.203,0.969,0.305,1.501,0.305
			c0.364,0,0.722-0.049,1.071-0.147c0.35-0.098,0.672-0.23,0.966-0.398s0.557-0.375,0.788-0.62c0.23-0.244,0.409-0.514,0.535-0.809
			l1.238,0.337c-0.168,0.405-0.406,0.773-0.713,1.102c-0.309,0.329-0.666,0.616-1.072,0.861c-0.405,0.245-0.854,0.435-1.344,0.567
			S408.937,180.286,408.419,180.286z M412.451,174.028c-0.042-0.588-0.179-1.124-0.409-1.606c-0.231-0.483-0.525-0.899-0.883-1.25
			c-0.356-0.35-0.773-0.622-1.249-0.818s-0.979-0.294-1.513-0.294c-0.531,0-1.035,0.098-1.512,0.294
			c-0.476,0.196-0.893,0.469-1.249,0.818c-0.356,0.351-0.644,0.771-0.86,1.261c-0.218,0.49-0.348,1.021-0.389,1.596H412.451z"/>
		<path d="M433.22,180.076h-1.428v-6.111c0-1.273-0.199-2.212-0.599-2.813s-1.005-0.903-1.817-0.903
			c-0.42,0-0.814,0.077-1.186,0.231s-0.715,0.371-1.029,0.65c-0.314,0.28-0.592,0.613-0.83,0.998s-0.42,0.809-0.545,1.271v6.678
			h-1.429v-6.111c0-1.302-0.196-2.247-0.588-2.835s-0.994-0.882-1.806-0.882c-0.826,0-1.562,0.287-2.205,0.861
			c-0.645,0.574-1.106,1.33-1.387,2.268v6.699h-1.428v-10.941h1.303v2.479c0.447-0.84,1.035-1.494,1.764-1.964
			c0.728-0.469,1.533-0.703,2.415-0.703c0.924,0,1.665,0.259,2.226,0.777c0.561,0.518,0.896,1.196,1.008,2.036
			c1.022-1.875,2.437-2.813,4.242-2.813c0.602,0,1.117,0.112,1.544,0.336s0.77,0.543,1.028,0.955c0.26,0.413,0.448,0.91,0.567,1.491
			c0.118,0.581,0.179,1.229,0.179,1.942V180.076z"/>
	</g>
</g>
</svg>
