<?xml version="1.0" encoding="utf-8"?>
<!-- Generator: Adobe Illustrator 16.0.0, SVG Export Plug-In . SVG Version: 6.00 Build 0)  -->
<!DOCTYPE svg PUBLIC "-//W3C//DTD SVG 1.1//EN" "http://www.w3.org/Graphics/SVG/1.1/DTD/svg11.dtd">
<svg version="1.1" id="Layer_1" xmlns="http://www.w3.org/2000/svg" xmlns:xlink="http://www.w3.org/1999/xlink" x="0px" y="0px"
	 width="458.814px" height="199.261px" viewBox="0 0 458.814 199.261" enable-background="new 0 0 458.814 199.261"
	 xml:space="preserve">
<g>
	<text transform="matrix(1 0 0 1 92.5508 152.2925)" font-family="'Kankin'" font-size="175.25">mess</text>
	<g>
		<g>
			<rect x="45.838" y="114.132" width="5.329" height="6.129"/>
			<rect x="34.913" y="130.386" width="5.329" height="6.127"/>
			<rect x="23.988" y="114.132" width="5.331" height="6.129"/>
			<rect x="53.565" y="97.613" width="5.328" height="6.128"/>
			<rect x="34.913" y="97.613" width="5.329" height="6.128"/>
			<rect x="16.262" y="97.613" width="5.33" height="6.128"/>
			<rect x="45.838" y="81.094" width="5.329" height="6.129"/>
			<rect x="23.988" y="81.094" width="5.331" height="6.129"/>
			<path d="M17.595,75.764c-0.534,0-1.333-0.266-1.864-0.532c-0.534-0.532-1.066-1.067-1.866-1.599
				C5.07,65.64-0.258,56.047,0.01,48.854c0-1.332,1.066-2.398,2.396-2.665c5.597-0.532,12.79,2.132,19.982,7.194
				c0-11.19,5.064-21.315,12.79-25.845c0.8-0.532,1.6-0.532,2.399,0c8.26,3.997,14.121,13.855,14.921,25.046
				c6.927-5.862,14.388-9.592,19.716-9.326c1.333,0,2.398,1.066,2.665,2.398c0.8,6.928-3.996,17.053-11.989,25.844
				c-1.067,1.066-2.133,2.398-3.465,3.465c-1.064,1.066-2.664,1.066-3.73-0.266c-1.064-1.066-1.064-2.665,0.268-3.73
				c1.066-1.066,2.131-1.865,2.931-3.197c6.662-7.195,9.857-14.122,10.392-18.918c-4.529,1.066-11.191,4.796-17.853,11.723
				c-0.798,0.801-1.865,1.066-2.931,0.533c-1.064-0.533-1.599-1.598-1.599-2.664c0-1.332,0.266-2.931,0-4.263
				c-0.266-9.326-4.528-17.853-10.658-21.316c-5.86,4.263-9.324,13.057-9.059,22.382c0,1.066,0.267,2.398,0.267,3.73
				c0.268,1.066-0.267,2.131-1.332,2.664c-1.066,0.533-2.133,0.266-2.933-0.266c-6.394-6.129-13.055-9.06-17.584-9.859
				C6.67,56.047,10.4,62.976,17.595,69.37c0.532,0.532,1.065,1.065,1.599,1.331c1.065,1.067,1.332,2.666,0.266,3.732
				C18.927,75.498,18.127,75.764,17.595,75.764z"/>
			<path d="M37.578,152.5c-19.983,0-35.172-33.305-35.172-54.621c0-20.249,13.057-32.506,35.172-32.506
				c5.861,0,11.19,0.799,15.721,2.664c0.798,0.268,1.864,0.799,2.664,1.066c7.46,3.73,16.52,11.457,16.52,28.775
				C72.482,119.195,57.562,152.5,37.578,152.5z M37.578,70.701c-9.059,0-29.842,2.666-29.842,27.178
				c0,21.048,14.652,49.292,29.842,49.292c14.921,0,29.842-28.244,29.842-49.292c0-11.725-4.529-19.717-13.589-23.98
				c-0.8-0.266-1.599-0.799-2.398-1.064C47.438,71.234,42.641,70.701,37.578,70.701z"/>
		</g>
	</g>
</g>
<g>
	<text transform="matrix(1 0 0 1 99.7646 180.0757)" font-family="'Raleway'" font-size="21" letter-spacing="1">meals electronic signup system</text>
</g>
</svg>
