<?xml version="1.0" encoding="utf-8"?>
<!-- Generator: Adobe Illustrator 16.0.0, SVG Export Plug-In . SVG Version: 6.00 Build 0)  -->
<!DOCTYPE svg PUBLIC "-//W3C//DTD SVG 1.1//EN" "http://www.w3.org/Graphics/SVG/1.1/DTD/svg11.dtd">
<svg version="1.1" id="Layer_1" xmlns="http://www.w3.org/2000/svg" xmlns:xlink="http://www.w3.org/1999/xlink" x="0px" y="0px"
	 width="616.413px" height="142.357px" viewBox="0 0 616.413 142.357" enable-background="new 0 0 616.413 142.357"
	 xml:space="preserve">
<path fill="#7A936C" d="M66.534,59.019c0,0-10.963-15.458-11.109-25.517C55.025,6.292,73.752,0,73.752,0s23.507,17.437,27.49,39.143
	c1.732,9.438-10.862,23.893-10.862,23.893"/>
<circle fill="#4A5399" stroke="#FFFFFF" stroke-width="3" stroke-miterlimit="10" cx="60.889" cy="82.716" r="32.198"/>
<path fill="#7A936C" d="M56.829,120.188c0,0-12.172,10.966-21.568,11.325C9.85,132.49,0,114.473,0,114.473
	s11.376-23.169,30.877-27.504c8.478-1.884,24.683,10.013,24.683,10.013"/>
<circle fill="#4A5399" stroke="#FFFFFF" stroke-width="3" stroke-miterlimit="10" cx="112.129" cy="81.331" r="32.198"/>
<circle fill="#4A5399" stroke="#FFFFFF" stroke-width="3" stroke-miterlimit="10" cx="80.277" cy="106.258" r="32.198"/>
<g>
	<path fill="#3C405B" d="M170.429,70.003c0-8.552,1.813-31.487,32.523-31.487c27.211,0,31.746,17.881,32.395,27.989
		c0.13,2.332-1.037,3.758-3.369,4.276l-14.643,3.24c-2.591,0.518-4.017-0.648-4.275-3.369c-0.519-6.22-2.722-9.848-10.107-9.848
		c-9.589,0-10.236,6.09-10.236,16.068V95.53c0,9.978,0.647,16.067,10.236,16.067s10.236-6.09,10.236-12.439h-7.516
		c-2.462,0-3.887-1.425-3.887-3.887V84.904c0-2.591,1.425-3.887,3.887-3.887h25.916c2.592,0,3.888,1.296,3.888,3.887v17.493
		c0,8.552-1.814,31.487-32.524,31.487s-32.523-22.935-32.523-31.487V70.003z"/>
	<path fill="#3C405B" d="M309.72,127.147c0,2.851-1.296,4.405-3.888,4.405h-14.513c-2.462,0-3.887-1.296-3.887-3.888v-11.273
		c0-2.591-1.296-3.887-3.888-3.887h-11.144c-2.462,0-3.888,1.296-3.888,3.887v11.273c0,2.592-1.296,3.888-3.887,3.888h-14.513
		c-2.463,0-3.888-1.555-3.888-4.405V72.206c0-16.327,2.592-33.69,31.746-33.69c29.155,0,31.747,17.363,31.747,33.69V127.147z
		 M287.433,72.206c0-6.22-0.907-9.33-9.46-9.33c-8.552,0-9.459,3.11-9.459,9.33V86.33c0,2.462,1.426,3.887,3.888,3.887h11.144
		c2.592-0.129,3.888-1.425,3.888-4.017V72.206z"/>
	<path fill="#3C405B" d="M340.168,67.022c0-2.591-1.296-3.887-3.887-3.887H318.14c-2.462,0-3.887-1.425-3.887-3.887V44.735
		c0-2.592,1.425-3.887,3.887-3.887h66.344c2.592,0,3.888,1.295,3.888,3.887v14.513c0,2.462-1.296,3.887-3.888,3.887h-18.141
		c-2.462,0-3.887,1.296-3.887,3.887v60.642c0,2.462-1.296,3.888-3.888,3.888h-14.513c-2.462,0-3.888-1.426-3.888-3.888V67.022z"/>
	<path fill="#3C405B" d="M414.542,40.848c2.462,0,3.888,1.425,3.888,3.887v32.394c0,2.462,1.425,3.888,3.887,3.888h12.439
		c2.592,0,3.888-1.425,3.888-3.888V44.735c0-2.462,1.425-3.887,3.887-3.887h14.514c2.591,0,3.887,1.295,3.887,3.887v82.929
		c0,2.462-1.296,3.888-3.887,3.888H442.53c-2.462,0-3.887-1.426-3.887-3.888v-20.473c0-2.592-1.296-3.888-3.888-3.888h-12.439
		c-2.462,0-3.887,1.296-3.887,3.888v20.473c0,2.462-1.296,3.888-3.888,3.888h-14.513c-2.462,0-3.888-1.426-3.888-3.888V44.735
		c0-2.592,1.296-3.887,3.888-3.887H414.542z"/>
	<path fill="#3C405B" d="M532.195,40.848c2.591,0,3.887,1.295,3.887,3.887v14.513c0,2.462-1.296,3.887-3.887,3.887h-31.358
		c-2.462,0-3.887,1.296-3.887,3.887v4.146c0,2.462,1.425,3.887,3.887,3.887h20.085c2.592,0,3.888,1.296,3.888,3.888v14.513
		c0,2.462-1.296,3.887-3.888,3.887h-20.085c-2.462,0-3.887,1.296-3.887,3.887v4.146c0,2.462,1.425,3.888,3.887,3.888h31.358
		c2.591,0,3.887,1.295,3.887,3.887v14.512c0,2.592-1.296,3.888-3.887,3.888h-54.423c-2.462,0-3.888-1.426-3.888-3.888V44.735
		c0-2.592,1.426-3.887,3.888-3.887H532.195z"/>
	<path fill="#3C405B" d="M614.344,124.555c1.813,3.369-0.26,6.997-4.276,6.997h-14.771c-1.296,0-2.462-0.647-2.98-1.814
		l-13.477-26.045c-0.259-0.389-0.647-0.647-1.036-0.647h-5.184c-2.332,0-4.017,1.684-4.017,4.017v20.474
		c0,2.332-1.685,4.017-4.017,4.017h-14.513c-2.333,0-4.018-1.685-4.018-4.017V44.865c0-2.333,1.685-4.017,4.018-4.017h28.377
		c23.065,0,32.395,9.848,32.395,31.099c0,12.05-2.98,20.473-9.848,25.397c-0.519,0.389-0.648,1.037-0.389,1.685L614.344,124.555z
		 M572.619,63.135c-2.332,0-4.017,1.685-4.017,4.017v9.588c0,2.333,1.685,4.017,4.017,4.017h6.608c6.22,0,9.33-0.777,9.33-8.811
		c0-8.034-3.11-8.812-9.33-8.812H572.619z"/>
</g>
<polygon fill="#101A49" points="78.438,81.044 85.444,79.942 86.935,83.37 92.452,85.696 86.935,88.022 85.444,91.452 
	78.438,90.349 71.433,91.452 69.944,88.022 64.426,85.696 69.944,83.37 71.433,79.942 "/>
<polygon fill="#101A49" points="113.06,56.117 120.066,55.014 121.556,58.443 127.073,60.769 121.556,63.095 120.066,66.525 
	113.06,65.421 106.054,66.525 104.565,63.095 99.048,60.769 104.565,58.443 106.054,55.014 "/>
<polygon fill="#101A49" points="59.05,57.501 66.057,56.399 67.546,59.828 73.063,62.154 67.546,64.48 66.057,67.91 59.05,66.806 
	52.044,67.91 50.556,64.48 45.038,62.154 50.556,59.828 52.044,56.399 "/>
<path fill="none" stroke="#FFFFFF" stroke-width="3" stroke-linecap="round" stroke-miterlimit="10" d="M85.825,60.769
	c0,0-16.281-18.559-11.377-44.872"/>
<path fill="none" stroke="#FFFFFF" stroke-width="3" stroke-linecap="round" stroke-miterlimit="10" d="M46.423,109.159
	c0,0-13.256-6.079-30.496,0.943"/>
</svg>
